<?xml version="1.0" encoding="UTF-8"?>
<svg xmlns="http://www.w3.org/2000/svg" xmlns:xlink="http://www.w3.org/1999/xlink" width="48px" height="48px" viewBox="0 0 48 48" version="1.1">
<g id="surface1">
<path style=" stroke:none;fill-rule:nonzero;fill:rgb(0%,0%,0%);fill-opacity:1;" d="M 22.859375 10.453125 C 22.585938 10.503906 22.546875 10.570312 22.472656 11.148438 C 22.390625 11.773438 22.363281 11.855469 22.171875 12.015625 C 22.03125 12.136719 21.636719 12.28125 21.453125 12.28125 C 21.304688 12.28125 21.089844 12.15625 20.726562 11.859375 C 20.535156 11.703125 20.335938 11.5625 20.273438 11.550781 C 20.078125 11.5 19.847656 11.65625 19.179688 12.3125 C 18.546875 12.9375 18.515625 12.980469 18.515625 13.152344 C 18.515625 13.304688 18.558594 13.382812 18.730469 13.59375 C 19.046875 13.96875 19.191406 14.300781 19.152344 14.558594 C 19.125 14.789062 18.945312 15.171875 18.816406 15.285156 C 18.6875 15.398438 18.359375 15.496094 17.890625 15.5625 C 17.652344 15.59375 17.441406 15.652344 17.386719 15.699219 C 17.25 15.804688 17.207031 16.082031 17.203125 16.835938 L 17.203125 17.476562 L 16.515625 17.453125 C 15.710938 17.417969 15.066406 17.488281 14.949219 17.617188 C 14.90625 17.65625 14.851562 17.839844 14.820312 18.019531 C 14.78125 18.296875 14.742188 18.371094 14.597656 18.519531 C 14.234375 18.890625 13.734375 19.070312 13.363281 18.957031 C 13.003906 18.847656 12.917969 18.867188 12.703125 19.109375 C 12.257812 19.617188 11.773438 20.5 11.734375 20.878906 C 11.710938 21.074219 11.71875 21.089844 11.953125 21.308594 C 12.3125 21.652344 12.398438 21.835938 12.394531 22.289062 C 12.394531 22.730469 12.332031 22.875 11.996094 23.234375 C 11.734375 23.515625 11.703125 23.652344 11.863281 23.96875 C 12.121094 24.472656 12.746094 25.3125 12.976562 25.460938 C 13.144531 25.574219 13.214844 25.570312 13.503906 25.414062 C 13.8125 25.257812 14.136719 25.25 14.421875 25.398438 C 14.695312 25.539062 14.792969 25.6875 14.882812 26.085938 C 14.925781 26.277344 15 26.464844 15.046875 26.507812 C 15.09375 26.550781 15.28125 26.605469 15.476562 26.632812 C 15.871094 26.691406 17 26.652344 17.257812 26.578125 C 17.441406 26.527344 17.445312 26.523438 17.578125 25.984375 C 17.675781 25.59375 18.066406 25.292969 18.472656 25.304688 C 18.589844 25.304688 18.804688 25.359375 18.960938 25.425781 C 19.335938 25.59375 19.433594 25.585938 19.648438 25.355469 C 20.066406 24.917969 20.578125 24.148438 20.710938 23.769531 C 20.773438 23.585938 20.757812 23.550781 20.394531 23.085938 C 20.199219 22.832031 20.183594 22.804688 20.164062 22.449219 C 20.152344 22.203125 20.160156 22.078125 20.195312 22.078125 C 20.222656 22.078125 20.453125 21.945312 20.699219 21.789062 C 21.238281 21.441406 21.382812 21.421875 21.863281 21.648438 C 22.289062 21.847656 22.382812 22.011719 22.5 22.757812 C 22.570312 23.210938 22.585938 23.242188 22.734375 23.320312 C 22.921875 23.417969 23.816406 23.457031 24.441406 23.398438 C 25.078125 23.339844 25.105469 23.316406 25.195312 22.773438 C 25.28125 22.246094 25.339844 22.03125 25.445312 21.910156 C 25.5625 21.757812 25.882812 21.570312 26.125 21.515625 C 26.382812 21.449219 26.515625 21.5 26.976562 21.839844 C 27.398438 22.148438 27.585938 22.210938 27.792969 22.101562 C 27.875 22.058594 28.21875 21.753906 28.546875 21.429688 C 29.34375 20.644531 29.367188 20.558594 28.945312 20.019531 C 28.5625 19.53125 28.496094 19.152344 28.714844 18.710938 C 28.902344 18.335938 29.132812 18.234375 30.144531 18.070312 C 30.476562 18.019531 30.492188 17.96875 30.492188 16.902344 C 30.488281 15.625 30.496094 15.640625 29.648438 15.515625 C 29.03125 15.425781 28.78125 15.253906 28.613281 14.78125 C 28.480469 14.410156 28.570312 14.101562 28.921875 13.667969 C 29.300781 13.210938 29.296875 13.09375 28.859375 12.628906 C 28.472656 12.207031 27.75 11.582031 27.617188 11.550781 C 27.441406 11.503906 27.308594 11.5625 26.890625 11.902344 C 26.671875 12.078125 26.421875 12.238281 26.347656 12.257812 C 26.085938 12.3125 25.667969 12.164062 25.472656 11.945312 C 25.335938 11.789062 25.273438 11.621094 25.199219 11.125 C 25.117188 10.589844 25.078125 10.519531 24.851562 10.453125 C 24.65625 10.402344 23.136719 10.398438 22.859375 10.453125 Z M 24.628906 13.851562 C 26.609375 14.371094 27.617188 16.625 26.667969 18.421875 C 25.859375 19.945312 24.015625 20.535156 22.453125 19.765625 C 22.144531 19.617188 21.976562 19.492188 21.679688 19.195312 C 21.039062 18.554688 20.765625 17.957031 20.726562 17.105469 C 20.699219 16.460938 20.792969 16.03125 21.078125 15.460938 C 21.511719 14.601562 22.320312 13.988281 23.300781 13.78125 C 23.578125 13.726562 24.285156 13.761719 24.628906 13.851562 Z M 18.285156 18.234375 C 18.664062 18.335938 18.941406 18.542969 19.105469 18.851562 C 19.171875 18.984375 19.171875 18.984375 19.015625 18.984375 C 18.824219 18.984375 18.414062 18.867188 18.238281 18.757812 C 17.984375 18.601562 17.625 18.238281 17.625 18.140625 C 17.625 18.101562 17.980469 18.15625 18.285156 18.234375 Z M 16.882812 20.136719 C 17.1875 20.234375 17.625 20.527344 17.804688 20.75 C 17.882812 20.855469 18.007812 21.050781 18.078125 21.191406 C 18.203125 21.421875 18.210938 21.488281 18.210938 21.960938 C 18.210938 22.425781 18.195312 22.503906 18.085938 22.75 C 17.621094 23.738281 16.386719 24.171875 15.398438 23.691406 C 15.089844 23.539062 14.667969 23.113281 14.515625 22.804688 C 14.164062 22.097656 14.292969 21.257812 14.839844 20.667969 C 15.378906 20.09375 16.132812 19.898438 16.882812 20.136719 Z M 16.882812 20.136719 "/>
<path style=" stroke:none;fill-rule:nonzero;fill:rgb(0%,0%,0%);fill-opacity:1;" d="M 33.671875 11.597656 C 32.769531 11.816406 32 12.585938 31.757812 13.5 C 31.636719 13.960938 31.578125 13.925781 32.484375 13.917969 L 33.28125 13.914062 L 33.398438 13.691406 C 33.535156 13.449219 33.75 13.28125 34.027344 13.210938 L 34.21875 13.164062 L 34.21875 11.53125 L 34.070312 11.535156 C 33.984375 11.535156 33.800781 11.5625 33.671875 11.597656 Z M 33.671875 11.597656 "/>
<path style=" stroke:none;fill-rule:nonzero;fill:rgb(0%,0%,0%);fill-opacity:1;" d="M 16.734375 13.34375 C 16.433594 13.453125 16.34375 13.875 16.574219 14.085938 C 16.753906 14.25 16.984375 14.246094 17.160156 14.066406 C 17.386719 13.84375 17.304688 13.46875 17.011719 13.363281 C 16.847656 13.308594 16.835938 13.308594 16.734375 13.34375 Z M 16.734375 13.34375 "/>
<path style=" stroke:none;fill-rule:nonzero;fill:rgb(0%,0%,0%);fill-opacity:1;" d="M 31.6875 14.476562 C 31.6875 14.6875 31.824219 15.140625 31.960938 15.394531 C 32.175781 15.796875 32.632812 16.242188 33.046875 16.449219 C 34.390625 17.117188 35.953125 16.5625 36.585938 15.179688 C 36.710938 14.902344 36.804688 14.40625 36.742188 14.363281 C 36.65625 14.3125 35.15625 14.398438 35.15625 14.457031 C 35.15625 14.601562 34.882812 14.914062 34.667969 15.023438 C 34.148438 15.28125 33.605469 15.078125 33.367188 14.546875 L 33.277344 14.34375 L 31.6875 14.34375 Z M 31.6875 14.476562 "/>
<path style=" stroke:none;fill-rule:nonzero;fill:rgb(0%,0%,0%);fill-opacity:1;" d="M 13.714844 14.554688 C 13.4375 14.652344 13.304688 14.769531 13.175781 15.015625 C 12.867188 15.632812 13.242188 16.304688 13.921875 16.351562 C 14.15625 16.367188 14.230469 16.351562 14.4375 16.238281 C 15.007812 15.929688 15.101562 15.242188 14.644531 14.785156 C 14.363281 14.5 14.066406 14.429688 13.714844 14.554688 Z M 13.714844 14.554688 "/>
<path style=" stroke:none;fill-rule:nonzero;fill:rgb(0%,0%,0%);fill-opacity:1;" d="M 15.960938 15.441406 C 15.792969 15.609375 15.890625 15.84375 16.128906 15.84375 C 16.382812 15.84375 16.492188 15.601562 16.3125 15.421875 C 16.191406 15.300781 16.097656 15.304688 15.960938 15.441406 Z M 15.960938 15.441406 "/>
<path style=" stroke:none;fill-rule:nonzero;fill:rgb(0%,0%,0%);fill-opacity:1;" d="M 12.375 17.4375 C 12.1875 17.625 12.304688 18.039062 12.554688 18.050781 C 12.875 18.074219 13.011719 17.9375 12.988281 17.609375 C 12.980469 17.476562 12.8125 17.34375 12.632812 17.34375 C 12.53125 17.34375 12.429688 17.382812 12.375 17.4375 Z M 12.375 17.4375 "/>
<path style=" stroke:none;fill-rule:nonzero;fill:rgb(0%,0%,0%);fill-opacity:1;" d="M 31.824219 17.574219 C 31.507812 17.886719 31.808594 18.402344 32.25 18.304688 C 32.445312 18.261719 32.59375 18.03125 32.558594 17.816406 C 32.503906 17.4375 32.09375 17.300781 31.824219 17.574219 Z M 31.824219 17.574219 "/>
<path style=" stroke:none;fill-rule:nonzero;fill:rgb(0%,0%,0%);fill-opacity:1;" d="M 34.796875 17.796875 C 34.710938 17.855469 34.6875 17.914062 34.6875 18.066406 C 34.6875 18.25 34.714844 18.28125 35.203125 18.769531 C 35.488281 19.046875 35.71875 19.28125 35.71875 19.285156 C 35.71875 19.285156 35.269531 19.292969 34.71875 19.304688 C 33.273438 19.320312 32.644531 19.425781 31.710938 19.785156 C 31.082031 20.03125 30.511719 20.363281 29.667969 20.980469 C 29.277344 21.261719 28.859375 21.566406 28.734375 21.65625 C 28.414062 21.886719 26.601562 23.230469 24.546875 24.753906 C 21.585938 26.949219 21.328125 27.132812 20.835938 27.375 C 20.128906 27.726562 19.585938 27.847656 18.75 27.859375 C 17.953125 27.867188 17.644531 27.820312 16.695312 27.535156 C 16.316406 27.417969 15.78125 27.289062 15.511719 27.25 C 15.054688 27.179688 14.984375 27.179688 14.601562 27.25 C 14.019531 27.355469 13.566406 27.582031 13.199219 27.945312 C 12.703125 28.449219 12.496094 28.9375 12.496094 29.625 C 12.496094 30.289062 12.699219 30.746094 13.191406 31.203125 C 13.644531 31.625 13.742188 31.65625 15.039062 31.679688 C 16.214844 31.695312 16.355469 31.679688 16.449219 31.472656 C 16.523438 31.304688 16.515625 31.242188 16.382812 31.085938 L 16.265625 30.945312 L 15.414062 30.933594 C 14.585938 30.914062 14.546875 30.910156 14.289062 30.78125 C 14.019531 30.652344 13.824219 30.449219 13.664062 30.140625 C 13.550781 29.921875 13.546875 29.480469 13.65625 29.195312 C 13.8125 28.78125 14.371094 28.40625 14.832031 28.40625 C 15.085938 28.40625 15.46875 28.527344 16.078125 28.804688 C 17.128906 29.277344 17.835938 29.421875 18.929688 29.375 C 19.667969 29.347656 20.34375 29.222656 20.976562 28.996094 C 21.742188 28.71875 22.09375 28.5 24.09375 27.003906 C 26.316406 25.355469 26.949219 24.882812 27.890625 24.1875 C 28.390625 23.816406 29.296875 23.148438 29.902344 22.691406 C 31.164062 21.753906 31.636719 21.445312 32.136719 21.234375 C 32.960938 20.890625 33.625 20.804688 35.210938 20.820312 L 36.324219 20.835938 L 36.113281 21.160156 C 35.898438 21.5 35.859375 21.664062 35.976562 21.828125 C 36.070312 21.960938 36.296875 22.011719 36.417969 21.929688 C 36.46875 21.890625 36.828125 21.441406 37.21875 20.929688 C 37.828125 20.125 37.921875 19.976562 37.921875 19.828125 C 37.921875 19.609375 37.851562 19.542969 36.960938 18.945312 C 36.578125 18.6875 36.007812 18.304688 35.703125 18.097656 C 35.125 17.699219 34.992188 17.65625 34.796875 17.796875 Z M 34.796875 17.796875 "/>
<path style=" stroke:none;fill-rule:nonzero;fill:rgb(0%,0%,0%);fill-opacity:1;" d="M 34.382812 22.339844 C 34.046875 22.515625 33.890625 22.757812 33.890625 23.109375 C 33.890625 23.414062 33.976562 23.617188 34.1875 23.796875 C 34.335938 23.929688 34.609375 24.046875 34.757812 24.046875 C 35.03125 24.046875 35.421875 23.785156 35.5625 23.511719 C 35.65625 23.328125 35.65625 22.9375 35.5625 22.757812 C 35.46875 22.574219 35.257812 22.378906 35.09375 22.316406 C 34.902344 22.242188 34.546875 22.257812 34.382812 22.339844 Z M 34.382812 22.339844 "/>
<path style=" stroke:none;fill-rule:nonzero;fill:rgb(0%,0%,0%);fill-opacity:1;" d="M 32.390625 23.375 C 32.1875 23.558594 32.160156 23.742188 32.15625 24.851562 L 32.15625 25.828125 L 31.3125 25.828125 L 31.3125 25.296875 C 31.3125 25.011719 31.292969 24.695312 31.269531 24.59375 C 31.179688 24.21875 30.839844 24.027344 30.5 24.160156 C 30.160156 24.296875 30.117188 24.394531 30.101562 25.148438 C 30.09375 25.585938 30.066406 25.8125 30.03125 25.835938 C 29.992188 25.867188 29.992188 25.875 30.039062 25.875 C 30.078125 25.875 30.09375 26.160156 30.09375 27.15625 C 30.09375 28.589844 30.113281 28.679688 30.425781 28.835938 C 30.632812 28.945312 30.78125 28.945312 30.96875 28.828125 C 31.285156 28.640625 31.285156 28.617188 31.3125 27.164062 C 31.332031 26.160156 31.34375 25.929688 31.375 26.183594 C 31.390625 26.371094 31.398438 26.574219 31.378906 26.644531 L 31.351562 26.765625 L 31.730469 26.765625 C 31.964844 26.765625 32.109375 26.746094 32.109375 26.714844 C 32.109375 26.691406 32.085938 26.679688 32.054688 26.699219 C 32.015625 26.722656 32.011719 26.710938 32.039062 26.644531 C 32.058594 26.597656 32.078125 26.398438 32.082031 26.21875 C 32.082031 26.03125 32.101562 25.875 32.125 25.875 C 32.140625 25.875 32.15625 26.417969 32.15625 27.089844 C 32.15625 27.753906 32.171875 28.367188 32.183594 28.449219 C 32.257812 28.808594 32.652344 29.007812 32.984375 28.847656 C 33.304688 28.6875 33.347656 28.542969 33.371094 27.625 L 33.382812 26.8125 L 34.054688 26.8125 C 34.796875 26.8125 34.804688 26.816406 34.945312 27.15625 C 35.007812 27.304688 35.015625 27.859375 35.015625 31.570312 C 35.015625 36.335938 34.988281 35.996094 35.367188 35.609375 C 35.488281 35.488281 35.601562 35.3125 35.667969 35.136719 C 35.769531 34.867188 35.769531 34.855469 35.765625 31.046875 C 35.765625 28.507812 35.746094 27.164062 35.714844 27.03125 C 35.644531 26.757812 35.363281 26.351562 35.089844 26.152344 C 34.761719 25.902344 34.484375 25.828125 33.886719 25.828125 L 33.375 25.828125 L 33.375 24.851562 C 33.375 24.320312 33.351562 23.796875 33.328125 23.695312 C 33.261719 23.414062 33.054688 23.25 32.765625 23.25 C 32.578125 23.25 32.503906 23.273438 32.390625 23.375 Z M 31.921875 25.917969 C 31.921875 26 31.835938 26.015625 31.78125 25.945312 C 31.734375 25.882812 31.738281 25.875 31.824219 25.875 C 31.875 25.875 31.921875 25.894531 31.921875 25.917969 Z M 31.59375 26.082031 C 31.59375 26.09375 31.574219 26.117188 31.546875 26.132812 C 31.523438 26.148438 31.5 26.136719 31.5 26.113281 C 31.5 26.085938 31.523438 26.0625 31.546875 26.0625 C 31.574219 26.0625 31.59375 26.070312 31.59375 26.082031 Z M 31.921875 26.277344 C 31.921875 26.289062 31.859375 26.296875 31.78125 26.296875 C 31.707031 26.296875 31.640625 26.277344 31.640625 26.257812 C 31.640625 26.234375 31.707031 26.226562 31.78125 26.242188 C 31.859375 26.25 31.921875 26.269531 31.921875 26.277344 Z M 31.507812 26.460938 C 31.5 26.578125 31.476562 26.671875 31.457031 26.671875 C 31.445312 26.671875 31.433594 26.578125 31.445312 26.460938 C 31.453125 26.34375 31.476562 26.25 31.496094 26.25 C 31.507812 26.25 31.519531 26.34375 31.507812 26.460938 Z M 31.6875 26.671875 C 31.6875 26.695312 31.648438 26.71875 31.609375 26.71875 C 31.539062 26.71875 31.53125 26.710938 31.59375 26.671875 C 31.683594 26.617188 31.6875 26.617188 31.6875 26.671875 Z M 31.96875 26.671875 C 31.96875 26.695312 31.960938 26.71875 31.949219 26.71875 C 31.9375 26.71875 31.914062 26.695312 31.898438 26.671875 C 31.882812 26.644531 31.894531 26.625 31.917969 26.625 C 31.945312 26.625 31.96875 26.644531 31.96875 26.671875 Z M 31.96875 26.671875 "/>
<path style=" stroke:none;fill-rule:nonzero;fill:rgb(0%,0%,0%);fill-opacity:1;" d="M 36.257812 23.882812 C 36.109375 24.027344 36.109375 24.234375 36.25 24.402344 C 36.472656 24.660156 36.890625 24.492188 36.890625 24.140625 C 36.890625 23.796875 36.496094 23.640625 36.257812 23.882812 Z M 36.257812 23.882812 "/>
<path style=" stroke:none;fill-rule:nonzero;fill:rgb(0%,0%,0%);fill-opacity:1;" d="M 21.523438 24.5625 C 21.359375 24.628906 21.261719 24.90625 21.328125 25.105469 C 21.476562 25.554688 22.171875 25.433594 22.171875 24.960938 C 22.171875 24.632812 21.847656 24.4375 21.523438 24.5625 Z M 21.523438 24.5625 "/>
<path style=" stroke:none;fill-rule:nonzero;fill:rgb(0%,0%,0%);fill-opacity:1;" d="M 28.523438 25.78125 C 28.316406 25.828125 28.179688 25.925781 28.101562 26.089844 C 28.046875 26.210938 28.03125 26.457031 28.03125 27.3125 C 28.03125 28.332031 28.035156 28.398438 28.140625 28.59375 C 28.21875 28.761719 28.28125 28.820312 28.433594 28.871094 C 28.671875 28.953125 28.847656 28.914062 29.039062 28.71875 L 29.1875 28.570312 L 29.21875 27.429688 C 29.242188 26.253906 29.222656 26.042969 29.066406 25.902344 C 28.949219 25.796875 28.707031 25.742188 28.523438 25.78125 Z M 28.523438 25.78125 "/>
<path style=" stroke:none;fill-rule:nonzero;fill:rgb(0%,0%,0%);fill-opacity:1;" d="M 26.304688 26.625 C 26.0625 26.773438 26.015625 26.949219 26.015625 27.726562 C 26.015625 28.503906 26.0625 28.679688 26.304688 28.828125 C 26.503906 28.945312 26.699219 28.945312 26.890625 28.828125 C 27.160156 28.667969 27.171875 28.59375 27.148438 27.449219 L 27.140625 26.851562 L 26.980469 26.691406 C 26.789062 26.5 26.550781 26.476562 26.304688 26.625 Z M 26.304688 26.625 "/>
<path style=" stroke:none;fill-rule:nonzero;fill:rgb(0%,0%,0%);fill-opacity:1;" d="M 23.253906 28.777344 C 23.179688 28.820312 22.636719 29.316406 22.054688 29.882812 C 21.46875 30.449219 20.976562 30.917969 20.957031 30.921875 C 20.945312 30.933594 20.785156 30.8125 20.601562 30.65625 C 20.253906 30.355469 20.140625 30.300781 19.984375 30.359375 C 19.929688 30.378906 19.40625 30.863281 18.824219 31.433594 C 17.710938 32.527344 17.691406 32.550781 17.816406 32.832031 C 17.882812 32.972656 18.09375 33.066406 18.242188 33.023438 C 18.304688 33.003906 18.648438 32.703125 19.007812 32.347656 C 19.367188 31.996094 19.773438 31.609375 19.902344 31.480469 L 20.148438 31.257812 L 20.460938 31.542969 C 20.632812 31.703125 20.828125 31.84375 20.882812 31.855469 C 21.109375 31.914062 21.078125 31.9375 22.75 30.296875 C 23.898438 29.164062 23.925781 29.125 23.71875 28.867188 C 23.601562 28.710938 23.421875 28.679688 23.253906 28.777344 Z M 23.253906 28.777344 "/>
<path style=" stroke:none;fill-rule:nonzero;fill:rgb(0%,0%,0%);fill-opacity:1;" d="M 26.546875 30.09375 C 26.132812 30.34375 26.175781 30.96875 26.617188 31.15625 C 26.863281 31.261719 27.117188 31.214844 27.308594 31.027344 C 27.496094 30.847656 27.539062 30.683594 27.46875 30.429688 C 27.367188 30.039062 26.90625 29.867188 26.546875 30.09375 Z M 26.546875 30.09375 "/>
<path style=" stroke:none;fill-rule:nonzero;fill:rgb(0%,0%,0%);fill-opacity:1;" d="M 28.445312 30.074219 C 28.171875 30.21875 28.078125 30.710938 28.269531 30.957031 C 28.472656 31.214844 28.753906 31.28125 29.046875 31.140625 C 29.460938 30.941406 29.503906 30.394531 29.128906 30.097656 C 28.976562 29.980469 28.636719 29.96875 28.445312 30.074219 Z M 28.445312 30.074219 "/>
<path style=" stroke:none;fill-rule:nonzero;fill:rgb(0%,0%,0%);fill-opacity:1;" d="M 30.371094 30.070312 C 29.96875 30.289062 29.992188 30.953125 30.402344 31.148438 C 30.941406 31.40625 31.515625 30.851562 31.242188 30.328125 C 31.082031 30.023438 30.679688 29.902344 30.371094 30.070312 Z M 30.371094 30.070312 "/>
<path style=" stroke:none;fill-rule:nonzero;fill:rgb(0%,0%,0%);fill-opacity:1;" d="M 32.179688 30.15625 C 31.890625 30.445312 31.921875 30.894531 32.246094 31.109375 C 32.644531 31.378906 33.214844 31.070312 33.207031 30.589844 C 33.195312 30.226562 32.953125 30 32.550781 30 C 32.367188 30 32.3125 30.023438 32.179688 30.15625 Z M 32.179688 30.15625 "/>
<path style=" stroke:none;fill-rule:nonzero;fill:rgb(0%,0%,0%);fill-opacity:1;" d="M 23.644531 30.523438 C 23.558594 30.585938 23.375 30.726562 23.230469 30.84375 L 22.96875 31.054688 L 22.964844 31.570312 C 22.945312 33.8125 22.96875 35.878906 23.015625 35.925781 C 23.085938 35.996094 23.78125 36.023438 23.902344 35.957031 L 24 35.902344 L 23.992188 33.171875 C 23.976562 30.488281 23.976562 30.445312 23.882812 30.429688 C 23.832031 30.425781 23.722656 30.46875 23.644531 30.523438 Z M 23.644531 30.523438 "/>
<path style=" stroke:none;fill-rule:nonzero;fill:rgb(0%,0%,0%);fill-opacity:1;" d="M 26.695312 31.925781 C 26.417969 32.011719 26.25 32.230469 26.25 32.507812 C 26.25 33.183594 27.164062 33.382812 27.445312 32.769531 C 27.589844 32.445312 27.441406 32.078125 27.113281 31.941406 C 26.933594 31.867188 26.890625 31.867188 26.695312 31.925781 Z M 26.695312 31.925781 "/>
<path style=" stroke:none;fill-rule:nonzero;fill:rgb(0%,0%,0%);fill-opacity:1;" d="M 28.503906 31.960938 C 28.171875 32.128906 28.058594 32.503906 28.238281 32.84375 C 28.4375 33.238281 29.058594 33.238281 29.296875 32.84375 C 29.480469 32.546875 29.367188 32.125 29.058594 31.960938 C 28.859375 31.851562 28.710938 31.851562 28.503906 31.960938 Z M 28.503906 31.960938 "/>
<path style=" stroke:none;fill-rule:nonzero;fill:rgb(0%,0%,0%);fill-opacity:1;" d="M 30.425781 31.960938 C 30.183594 32.082031 30.070312 32.265625 30.074219 32.523438 C 30.078125 32.914062 30.320312 33.140625 30.730469 33.140625 C 30.921875 33.140625 30.96875 33.117188 31.128906 32.957031 C 31.289062 32.796875 31.3125 32.75 31.3125 32.554688 C 31.3125 32.277344 31.179688 32.054688 30.964844 31.949219 C 30.757812 31.851562 30.625 31.855469 30.425781 31.960938 Z M 30.425781 31.960938 "/>
<path style=" stroke:none;fill-rule:nonzero;fill:rgb(0%,0%,0%);fill-opacity:1;" d="M 32.363281 31.941406 C 32.039062 32.082031 31.898438 32.453125 32.039062 32.769531 C 32.316406 33.375 33.234375 33.195312 33.234375 32.535156 C 33.234375 32.042969 32.804688 31.75 32.363281 31.941406 Z M 32.363281 31.941406 "/>
<path style=" stroke:none;fill-rule:nonzero;fill:rgb(0%,0%,0%);fill-opacity:1;" d="M 21.839844 32.21875 C 21.664062 32.324219 21.484375 32.441406 21.425781 32.476562 C 21.328125 32.53125 21.328125 32.550781 21.328125 34.191406 C 21.328125 35.640625 21.335938 35.863281 21.402344 35.925781 C 21.453125 35.980469 21.570312 36 21.859375 36 C 22.070312 36 22.273438 35.976562 22.3125 35.953125 C 22.375 35.914062 22.382812 35.644531 22.398438 34.070312 C 22.402344 33.054688 22.398438 32.179688 22.382812 32.117188 C 22.34375 31.964844 22.191406 31.988281 21.839844 32.21875 Z M 21.839844 32.21875 "/>
<path style=" stroke:none;fill-rule:nonzero;fill:rgb(0%,0%,0%);fill-opacity:1;" d="M 12.628906 32.4375 C 12.570312 32.460938 12.511719 32.5 12.492188 32.527344 C 12.429688 32.628906 12.453125 32.859375 12.539062 32.953125 C 12.625 33.042969 12.683594 33.046875 14.648438 33.046875 C 16.550781 33.046875 16.679688 33.042969 16.75 32.960938 C 16.871094 32.828125 16.851562 32.601562 16.707031 32.488281 C 16.585938 32.390625 16.53125 32.390625 14.652344 32.394531 C 13.59375 32.394531 12.679688 32.414062 12.628906 32.4375 Z M 12.628906 32.4375 "/>
<path style=" stroke:none;fill-rule:nonzero;fill:rgb(0%,0%,0%);fill-opacity:1;" d="M 20.125 33.109375 L 19.738281 33.257812 L 19.710938 33.585938 C 19.691406 33.765625 19.6875 34.355469 19.695312 34.890625 C 19.710938 35.792969 19.714844 35.875 19.800781 35.933594 C 19.90625 36.007812 20.460938 36.023438 20.644531 35.953125 L 20.765625 35.90625 L 20.757812 34.445312 L 20.742188 32.976562 L 20.625 32.96875 C 20.558594 32.960938 20.335938 33.023438 20.125 33.109375 Z M 20.125 33.109375 "/>
<path style=" stroke:none;fill-rule:nonzero;fill:rgb(0%,0%,0%);fill-opacity:1;" d="M 12.539062 33.820312 C 12.390625 33.964844 12.390625 34.144531 12.539062 34.292969 L 12.65625 34.410156 L 14.652344 34.398438 L 16.648438 34.382812 L 16.738281 34.269531 C 16.855469 34.128906 16.851562 33.914062 16.734375 33.796875 C 16.644531 33.707031 16.578125 33.703125 14.648438 33.703125 L 12.652344 33.703125 Z M 12.539062 33.820312 "/>
<path style=" stroke:none;fill-rule:nonzero;fill:rgb(0%,0%,0%);fill-opacity:1;" d="M 18.507812 33.929688 L 18.140625 34.09375 L 18.140625 35.90625 L 18.273438 35.957031 C 18.402344 36.007812 19.023438 35.996094 19.117188 35.933594 C 19.15625 35.910156 19.171875 35.59375 19.171875 34.824219 L 19.171875 33.75 L 19.023438 33.753906 C 18.9375 33.753906 18.703125 33.835938 18.507812 33.929688 Z M 18.507812 33.929688 "/>
<path style=" stroke:none;fill-rule:nonzero;fill:rgb(0%,0%,0%);fill-opacity:1;" d="M 26.234375 34.003906 C 25.988281 34.09375 25.835938 34.242188 25.707031 34.523438 C 25.523438 34.90625 25.578125 35.296875 25.867188 35.59375 C 26.527344 36.289062 27.746094 35.714844 27.585938 34.785156 C 27.542969 34.519531 27.296875 34.175781 27.074219 34.058594 C 26.839844 33.941406 26.464844 33.917969 26.234375 34.003906 Z M 26.234375 34.003906 "/>
<path style=" stroke:none;fill-rule:nonzero;fill:rgb(0%,0%,0%);fill-opacity:1;" d="M 32.578125 33.988281 C 31.953125 34.238281 31.742188 35.039062 32.164062 35.550781 C 32.644531 36.132812 33.570312 35.984375 33.863281 35.289062 C 34.058594 34.820312 33.824219 34.242188 33.351562 34.027344 C 33.148438 33.933594 32.765625 33.914062 32.578125 33.988281 Z M 32.578125 33.988281 "/>
<path style=" stroke:none;fill-rule:nonzero;fill:rgb(0%,0%,0%);fill-opacity:1;" d="M 12.757812 35.066406 C 12.53125 35.09375 12.46875 35.160156 12.46875 35.371094 C 12.46875 35.625 12.589844 35.6875 13.148438 35.710938 C 13.617188 35.726562 13.640625 35.738281 13.640625 35.832031 C 13.640625 36.253906 14.035156 36.910156 14.445312 37.175781 C 14.996094 37.527344 14.058594 37.5 24.984375 37.503906 C 36.917969 37.507812 35.558594 37.519531 35.671875 37.40625 C 35.796875 37.28125 35.792969 37.074219 35.65625 36.945312 L 35.550781 36.84375 L 25.429688 36.835938 C 15.792969 36.820312 15.296875 36.816406 15.117188 36.734375 C 14.757812 36.570312 14.441406 36.164062 14.4375 35.851562 L 14.4375 35.722656 L 15.332031 35.710938 C 16.210938 35.695312 16.226562 35.691406 16.316406 35.582031 C 16.433594 35.4375 16.429688 35.242188 16.308594 35.128906 C 16.21875 35.046875 16.109375 35.042969 14.585938 35.039062 C 13.691406 35.039062 12.867188 35.054688 12.757812 35.066406 Z M 12.757812 35.066406 "/>
</g>
</svg>
